<svg enable-background="new 0 0 1280 624" viewBox="0 0 1280 624" xmlns="http://www.w3.org/2000/svg" class="svg-icon"><path d="m96 83.1c3.1.3 6.5.3 9.9 1 6.3 1.3 8.6 6 9.2 13.3.8 8.4.8 27.5.8 56.2v46c0 25.4-.5 43.9-1.6 54.9-1 9.9-3.4 13.6-8.6 14.6-2.6.5-5.2.8-7.8 1-2.9 0-5 .8-5 2.6s1.6 2.6 5.2 2.6c8.9 0 37.4-.8 38.7-.8 2.4 0 30.1.8 48.1.8 3.9 0 5.2-1 5.2-2.4 0-2.1-1-2.9-5-2.9-3.1-.3-7.8-.5-11.5-1.3-7.8-1.6-9.7-6.5-10.2-14.1-1.3-11-1.3-34.8-1.3-55.2v-99.5c0-4.4 1-6 3.1-6.5 1.6-.3 3.7-.5 7.1-.5 9.2 0 18 3.4 24.8 10.7 9.4 10.2 12.8 24.6 12.8 42.6 0 23.5-10.5 40.5-32.2 40.5-4.7 0-5.8 1-5.8 2.6s1.3 2.1 2.9 2.6c1.8.5 6.3.8 8.1.8 36.1 0 73-21.7 73-62 0-17.8-8.4-29.3-14.1-34.8-10.5-9.7-27.7-18-63.3-18-12 0-26.7.8-39.2.8-4.4 0-31.1-.8-42.4-.8-5 0-5.8 1-5.8 2.6s1.5 2.6 4.9 2.6z"/><path d="m296.1 109.5c1.8.3 3.9.3 8.1 1 5 .5 9.2 3.7 9.7 13.3.5 7.3.8 10.7.8 46v39.8c0 22.2-.3 37.4-1.3 46.8-.5 8.1-2.6 12-7.3 13.1-2.6.5-6 .5-8.1.8-2.6 0-4.2 1-4.2 2.4 0 1.6.8 2.9 4.7 2.9 7.6 0 32.2-.8 34.8-.8 1.3 0 29 .8 45 .8 3.4 0 4.4-1 4.4-2.4 0-1.3 0-2.6-4.2-2.9-2.9-.3-7.6-.5-10.7-1.6-7.1-1.8-8.4-6.5-8.9-12.3-.5-6.8-1-17.8-1-34.8v-13.9c0-1.3.8-1.8 1.8-1.8l15.7.3c1.3 0 2.4.5 2.6 1.3 4.4 6.8 8.4 14.4 19.4 32.7 8.4 13.6 15.7 22.8 22.5 27.2 8.6 5.5 19.9 8.1 47.1 8.1h20.4c2.1 0 4.7-.3 4.7-2.4 0-1.3-1.3-2.6-3.7-2.9-1.8-.3-3.9-.3-6.3-.8-7.3-1-12.8-4.4-24.8-18.3-14.4-16-31.1-40.8-43.4-59.6 19.1-12.3 31.1-26.7 31.1-44.5s-9.7-29-22.2-35.3c-9.4-5.2-25.6-7.6-49.2-7.6-11.8 0-36.4.8-40.3.8-2.9 0-26.9-.8-36.4-.8-3.9 0-4.7 1.3-4.7 2.6-0 1.5 1 2.8 3.9 2.8zm61.7 14.2c0-1.8.5-2.1 1.6-2.6 1.3-.8 5.2-.8 8.6-.8 11.8 0 33.7 7.6 33.7 39.8 0 14.6-3.9 23.8-8.1 26.9-3.7 2.6-9.2 3.7-14.4 3.7-6.8 0-14.9-.8-19.4-3.1-1-.8-2.1-1.8-2.1-3.4v-60.5z"/><path d="m517.6 257.3c-.5 6.5-2.6 11.2-7.6 12.3-3.1.5-5.5.5-7.6.8-2.6 0-3.9 1.3-3.9 2.6 0 1.8 1.6 2.6 5.5 2.6 7.3 0 34.5-.8 35.1-.8 1.3 0 28.2.8 44.5.8 3.9 0 5-1.3 5-2.4 0-1.3-1-2.9-5-2.9-2.6-.3-6.5-.3-9.7-1-7.1-1.6-8.6-5.5-9.2-11.2-1-9.7-1.3-31.1-1.3-48.4v-39.7c0-35.3 0-40.8.8-48.1 1-7.8 3.1-10.2 9.4-11.5 2.6-.5 2.9-.5 5.2-.8 2.9-.3 4.7-.8 4.7-2.6 0-1.6-.5-2.6-4.7-2.6-8.9 0-38.5.8-39.8.8-.8 0-25.9-.8-35.1-.8-4.4 0-5.2 1.3-5.2 2.6 0 1.6 1.3 2.4 4.4 2.6 3.1.3 5.8.5 7.3 1 5.8.8 7.3 5 7.8 11 .8 7.1.8 13.1.8 48.4v39.8c.2 22.4-.1 38.1-1.4 47.5z"/><path d="m1024.3 227c-1.8 0-2.6.8-3.7 5.5-1.6 7.1-4.7 13.3-7.6 16.5-9.2 9.7-20.4 11.2-39 11.2-40 0-64.3-32.2-64.3-77.2 0-24.6 6.5-45 20.4-56 8.4-7.1 20.1-10.2 32.4-10.2 22.8 0 38.7 5.5 46.8 14.1s8.4 18 8.6 22.5c.3 3.1 1 5 2.9 5 2.1 0 2.9-2.1 3.1-5.5.5-6.5.8-19.6 1-27.2.5-7.6 1-14.1 1-16 0-1.3 0-2.9-2.6-3.1-7.1 0-11.8-1-22.8-2.9-8.9-1.3-20.4-2.6-33.5-2.6-33.5 0-57.5 6.3-78.2 23-23.8 19.1-29.6 47.6-29.6 63 0 24.6 6.5 47.6 29.8 66.7 25.4 20.1 55.7 24.8 86.1 24.8 14.6 0 30.9-1.3 40-5 3.7-1.3 5.5-3.7 6.3-7.6 1.8-11 5-30.9 5-35.3.2-2.2-.5-3.7-2.1-3.7z"/><path d="m1087.3 243.5c-.8 16-1.6 24.8-9.2 26.2-2.6.5-4.4.5-6.8.8-3.9 0-4.7 1.3-4.7 2.4 0 1.6 1 2.9 5.5 2.9 13.3 0 24.6-.8 35.6-.8 24.8 0 41.6 1.3 76.6 1.3 8.6 0 10.5-.3 12.3-6 1-4.4 3.4-22.8 3.4-32.7 0-2.9-.3-4.7-2.1-4.7-1.6 0-2.6 1.3-3.1 3.9-2.1 10.5-4.7 16-11.2 18.6-6.5 2.4-15.7 2.6-21.7 2.6-26.7 0-29.6-3.7-29.8-19.6-.3-9.2 0-19.9 0-27.5v-16.5c0-1.3.3-1.8 1.6-1.8 7.3 0 25.1.3 32.4.8 12.3.8 14.9 5 16.2 12 .3 1.6.3 3.1.5 4.4.3 2.6 1.3 3.7 2.6 3.7 1.6 0 2.4-.8 2.4-3.9 0-2.6.3-14.6.5-19.6.3-8.4 1.8-18.3 1.8-20.9 0-1.3-.3-2.9-1.8-2.9-1 0-2.1.8-3.1 2.9-2.9 4.4-6 5.2-18.8 5.8-9.2.3-25.4.3-32.4.3-1.6 0-1.8-.5-1.8-2.1v-48.1c0-1.6.5-2.4 1.8-2.4 7.3 0 26.4.5 35 1 11.2 1 14.1 4.2 15.4 9.4.8 3.4.8 5.2 1.3 8.4.3 2.1 1.3 3.1 2.6 3.1 1.6 0 2.6-1.8 2.6-3.7.8-14.1 1-18.8 1.3-24.6.5-5.2 1.3-8.1 1.8-11 .3-1.3-.3-2.4-1.6-2.4-.8 0-2.1.3-3.7.8-3.9.8-8.9 1-13.3 1-3.7 0-63.8.3-68 .3-9.9 0-20.9-.8-35-.8-3.7 0-5 1-5 2.4 0 1.3.5 2.6 3.9 2.9 2.4.3 5 .3 7.1.8 5.5 1 7.8 4.7 8.4 10.5.5 7.3.8 11.5.8 49.2v39.8c0 12.6-.3 25.1-.3 33.8z"/><path d="m306.4 501.4c-3.4-.3-9.7-.8-14.9-2.4-8.6-2.6-11.2-9.2-13.3-26.2l-21.4-158c-.8-6.5-2.4-10.2-5-10.2s-4.7 2.6-8.9 9.4l-71.7 126.6-74.8-125.1c-5.5-8.1-7.3-10.7-10.2-10.7-2.6 0-4.4 2.4-5.5 10.2l-23.8 160.8c-2.6 17.3-5.2 23.3-12.8 24.8-2.9.5-5.8.5-7.8.8-3.7 0-5.2 1-5.2 2.6 0 2.6 3.1 2.6 5.8 2.6 9.7 0 22-.8 30.1-.8 7.8 0 22.2.8 33.7.8 4.2 0 5.2-.8 5.2-2.9 0-1.6-.8-2.4-4.7-2.4-3.4-.3-5.8-.5-9.7-1.3-6.5-1.3-9.2-4.4-9.2-12 0-3.9 0-9.7 1-20.9l7.6-73.8c5 8.9 16.5 30.3 20.9 37.9 9.9 16.7 25.9 46.6 35 61.2 7.3 11.5 8.9 14.1 11.8 14.1 2.1 0 3.7-1.6 10.7-14.9l53.9-101 9.4 93.6c1 11.8.8 13.3-3.4 14.9-1.8.5-2.9 1.6-2.9 2.6 0 1.3 1 2.9 6 3.1 29.8 1.6 51 1.6 72.7 1.6 4.2 0 6.3-.5 6.3-2.6.1-1.6-1.5-2.4-4.9-2.4z"/><path d="m511.8 501.4c-1.3 0-3.1-.3-5.2-.5-8.9-1.3-13.1-7.3-21.2-24.1-15.7-34.5-56.2-119.5-62-132.4-4.4-8.9-6.5-12.3-9.2-12.3-2.9 0-5.5 3.4-11 15.4l-62.8 133.9c-6.8 15.4-12.8 18.6-24.1 19.9-2.9 0-4.2 1-4.2 2.6s1 2.6 4.7 2.6c11.2 0 26.4-.8 29-.8 13.3 0 21.2.8 32.7.8 3.1 0 4.4-1 4.4-2.9 0-1-.8-2.1-4.2-2.4-6-.5-16-.8-16-8.4 0-2.9 1.6-8.1 3.9-13.9l5.5-13.3c.3-.8 1-2.4 2.6-2.4h54.1c.8 0 1.8.5 2.1 1.3l14.4 32.2c1.3 2.9-1 3.1-3.1 3.9-1.6.5-3.1 1-3.1 2.6 0 1.3 1.6 2.4 4.7 2.4 13.9.3 41.1.5 67.5.8 2.6 0 4.7-.8 4.7-2.6.2-1-1.4-2.4-4.2-2.4zm-90.3-58.5h-39.2c-.5 0-1-.3-.8-1l19.4-46.6c.5-1 .5-1.6 1.3-.3l20.7 46.8c.2.5.2 1.1-1.4 1.1z"/><path d="m727.3 501.4c-1.8-.3-3.9-.3-6.3-.8-7.3-1-12.8-4.4-24.8-18.3-14.4-16-31.1-40.8-43.4-59.6 19.1-12.3 31.1-26.7 31.1-44.5s-9.7-29-22.2-35.3c-9.4-5.2-25.6-7.6-49.2-7.6-11.8 0-36.4.8-40.3.8-2.9 0-26.9-.8-36.4-.8-3.9 0-4.7 1.3-4.7 2.6s1 2.6 3.9 2.6c1.8.3 3.9.3 8.1 1 5 .5 9.2 3.7 9.7 13.3.5 7.3.8 10.7.8 46v39.8c0 22.2-.3 37.4-1.3 46.8-.5 8.1-2.6 12-7.3 13.1-2.6.5-6 .5-8.1.8-2.6 0-4.2 1-4.2 2.4 0 1.6.8 2.9 4.7 2.9 7.6 0 32.2-.8 34.8-.8 1.3 0 29 .8 45 .8 3.4 0 4.4-1 4.4-2.4 0-1.3 0-2.6-4.2-2.9-2.9-.3-7.6-.5-10.7-1.6-7.1-1.8-8.4-6.5-8.9-12.3-.5-6.8-1-17.8-1-34.8v-13.9c0-1.3.8-1.8 1.8-1.8l15.7.3c1.3 0 2.4.5 2.6 1.3 4.4 6.8 8.4 14.4 19.4 32.7 8.4 13.6 15.7 22.8 22.5 27.2 8.6 5.5 19.9 8.1 47.1 8.1h20.4c2.1 0 4.7-.3 4.7-2.4-.1-1.1-1.4-2.4-3.7-2.7zm-94.7-83.4c-3.7 2.6-9.2 3.7-14.4 3.7-6.8 0-14.9-.8-19.4-3.1-1-.8-2.1-1.8-2.1-3.4v-60.4c0-1.8.5-2.1 1.6-2.6 1.3-.8 5.2-.8 8.6-.8 11.8 0 33.7 7.6 33.7 39.8.1 14.5-3.8 23.7-8 26.8z"/><path d="m888.4 373.5c-1.3 0-3.1.5-7.6 1.3-3.1.5-7.3 1-14.1 1h-49.9c0-1.1 0-2.3 0-3.4 0-19.8-.9-38-2.4-52.5 11.3-3.8 19.5-14.3 19.5-26.9 0-15.7-12.7-28.4-28.4-28.4s-28.4 12.7-28.4 28.4c0 12.5 8.2 23.1 19.5 26.9-1.5 14.5-2.4 32.7-2.4 52.5v3.4h-32.1c-8.9 0-23.3-1-26.7-1.8-3.7-.5-5.5-1.6-6.8-1.6s-2.6 1.6-3.1 5c-1.8 10.5-3.9 22.2-5.2 33.2-.3 2.6.3 4.7 2.1 4.7 1.6 0 2.4-1.8 2.9-3.4.8-1.6 1.3-3.4 1.8-5 2.9-9.2 7.3-12.3 20.1-13.1 11.5-.8 26.7-.5 35.6-.5v87.1c0 22.2 0 38.2-1 47.9-.8 6.5-2.4 11-7.6 12-2.9.5-5.2.5-7.6.8-2.6.3-4.7 1-4.7 2.9s1.6 2.4 5.5 2.4c7.1 0 32.2-.8 35.6-.8s28 .8 44.2.8c4.2 0 5.5-.8 5.5-2.1 0-1.6-1-2.6-5.2-3.1-3.9-.3-6.5-.5-9.4-1-7.1-1-8.9-6.8-9.4-12.6-.8-9.7-1-29.8-1-47.1v-87.1c18.8 0 31.4 1 39.8 1.6 12.3 1.3 15.2 6.3 16 13.3 0 1.3.3 2.6.3 5.5.3 2.6 1.3 3.9 2.6 3.9s2.6-1 2.9-4.7c.3-5.5 1.8-29 1.8-31.6-.3-6.6-.1-7.9-2.7-7.9z"/><path d="m1009.2 501.4c-2.6-.3-6.5-.3-9.7-1-7.1-1.6-8.6-5.5-9.2-11.2-1-9.7-1.3-31.1-1.3-48.4v-39.8c0-35.3 0-40.8.8-48.1 1-7.8 3.1-10.2 9.4-11.5 2.6-.5 2.9-.5 5.2-.8 2.9-.3 4.7-.8 4.7-2.6 0-1.6-.5-2.6-4.7-2.6-8.9 0-38.4.8-39.8.8-.8 0-25.9-.8-35.1-.8-4.4 0-5.2 1.3-5.2 2.6 0 1.6 1.3 2.4 4.4 2.6 3.1.3 5.8.5 7.3 1 5.8.8 7.3 5 7.8 11 .8 7.1.8 13.1.8 48.4v39.8c0 22.5-.3 38.2-1.6 47.6-.5 6.5-2.6 11.2-7.6 12.3-3.1.5-5.5.5-7.6.8-2.6 0-3.9 1.3-3.9 2.6 0 1.8 1.6 2.6 5.5 2.6 7.3 0 34.5-.8 35.1-.8 1.3 0 28.2.8 44.5.8 3.9 0 5-1.3 5-2.4.2-1.3-.8-2.9-4.8-2.9z"/><path d="m1243.9 335.4c-9.4 0-21.7.8-27.5.8-10.5 0-26.7-.8-35.3-.8-2.4 0-4.4.8-4.4 2.6 0 1 1 2.4 4.2 2.6 3.7.3 6.5.5 9.4 1 10.2 1.6 11.8 7.6 12.3 20.1l1.3 80c-6.8-6-19.1-16.5-45-39.2-29-25.6-65.1-56.5-76.4-65.4-6.5-5-7.6-5-8.9-5-3.4 0-4.2 3.9-4.4 11.5-1 30.3-1 82.9-2.4 129.7-.8 20.9-2.9 26.2-12.6 27.5-2.9.3-4.2.3-6.5.5-3.1.3-4.2 1.3-4.2 2.6 0 1.8 1.3 2.6 5.2 2.6 7.8 0 26.9-.8 33.5-.8 16.5.3 23.5.8 30.1.8 4.2 0 5.8-.8 5.8-2.6 0-1.3-1-2.1-5-2.6-4.7-.3-7.3-.5-11.8-1.6-7.1-1.8-7.6-8.4-8.1-24.1l-2.4-73.5c20.1 18.3 40.3 35.6 52.8 46.8 11.2 10.2 29.8 26.2 46 39.8 18.6 15.2 26.7 20.9 30.6 20.9 3.4 0 5-2.4 5-15.4.3-45.5 1-91.8 3.1-134.4.8-14.4 3.4-17.8 11.2-18.8 1.6-.3 2.4-.3 5.2-.5 3.4-.3 3.9-1.8 3.9-2.9.2-1.2-.8-2.2-4.7-2.2z"/><path d="m623.1 275.6c7.8 0 26.9-.8 33.5-.8 16.5.3 23.5.8 30.1.8 4.2 0 5.8-.8 5.8-2.6 0-1.3-1-2.1-5-2.6-4.7-.3-7.3-.5-11.8-1.6-7.1-1.8-7.6-8.4-8.1-24.1l-2.4-73.5c20.1 18.3 40.3 35.6 52.8 46.8 11.2 10.2 29.8 26.2 46 39.8 3.6 3 6.8 5.6 9.7 7.8 4.1-10.4 14.2-17.7 26-17.9.3-40.4 1.2-81.1 3-118.8.8-14.4 3.4-17.8 11.2-18.8 1.6-.3 2.4-.3 5.2-.5 3.4-.3 3.9-1.8 3.9-2.9 0-1.3-1-2.4-5-2.4-9.4 0-21.7.8-27.5.8-10.5 0-26.7-.8-35.3-.8-2.4 0-4.4.8-4.4 2.6 0 1 1 2.4 4.2 2.6 3.7.3 6.5.5 9.4 1 10.2 1.6 11.8 7.6 12.3 20.1l1.3 80c-6.8-6-19.1-16.5-45-39.2-29-25.6-65.1-56.5-76.4-65.4-6.5-5-7.6-5-8.9-5-3.4 0-4.2 3.9-4.4 11.5-1 30.3-1 82.9-2.4 129.7-.8 20.9-2.9 26.2-12.6 27.5-2.9.3-4.2.3-6.5.5-3.1.3-4.2 1.3-4.2 2.6.2 2 1.5 2.8 5.5 2.8z"/></svg>